<svg width="584" height="187" viewBox="0 0 584 187" fill="none" xmlns="http://www.w3.org/2000/svg">
<!-- 3EM ENGINEERIGN 3em.it -->
<rect x="184" width="186" height="52" transform="rotate(90 184 0)" fill="#204E93"/>
<rect x="52" width="118" height="52" transform="rotate(90 52 0)" fill="#204E93"/>
<rect y="67" width="184" height="51" fill="#204E93"/>
<rect x="584" width="186" height="51" transform="rotate(90 584 0)" fill="#204E93"/>
<rect x="452" width="118" height="52" transform="rotate(90 452 0)" fill="#204E93"/>
<rect x="400" y="67" width="184" height="51" fill="#204E93"/>
<rect x="318" y="187" width="118" height="52" transform="rotate(180 318 187)" fill="#204E93"/>
<rect x="200" y="187" width="186" height="51" transform="rotate(-90 200 187)" fill="#204E93"/>
<rect x="332" y="121" width="120" height="51" transform="rotate(-90 332 121)" fill="#204E93"/>
<rect x="382" y="53" width="182" height="52" transform="rotate(180 382 53)" fill="#204E93"/>
<rect x="332" y="187" width="52" height="51" transform="rotate(-90 332 187)" fill="#FF0000"/>
</svg>
