<?xml version="1.0" standalone="no"?>
<!DOCTYPE svg PUBLIC "-//W3C//DTD SVG 20010904//EN"
 "http://www.w3.org/TR/2001/REC-SVG-20010904/DTD/svg10.dtd">
<svg version="1.0" xmlns="http://www.w3.org/2000/svg"
 width="1162.000000pt" height="1162.000000pt" viewBox="0 0 1162.000000 1162.000000"
 preserveAspectRatio="xMidYMid meet">
<metadata>
Created by potrace 1.14, written by Peter Selinger 2001-2017
</metadata>
<g transform="translate(0.000000,1162.000000) scale(0.100000,-0.100000)"
fill="#000000" stroke="none">
<path d="M0 7796 l0 -513 1225 0 c674 0 1228 -3 1232 -6 5 -5 7 -182 4 -287
l-1 -25 -1230 0 -1230 0 0 -512 c0 -403 3 -513 13 -514 6 0 560 -1 1230 -1
l1217 -1 1 -36 c0 -20 2 -90 2 -157 l2 -121 -1230 0 -1230 0 -3 -516 -2 -516
1850 0 1850 0 1 32 c1 42 1 3658 0 3675 -1 9 -378 12 -1851 12 l-1850 0 0
-514z"/>
<path d="M3952 6451 l0 -1860 1851 2 1852 2 1 513 c1 365 -2 512 -10 513 -6 0
-560 1 -1231 2 l-1220 2 0 156 0 156 1215 1 c668 0 1222 1 1231 1 15 1 16 50
16 511 0 281 -3 511 -6 511 -3 1 -557 2 -1231 3 l-1225 1 0 158 c0 133 2 157
15 158 8 0 562 1 1230 2 l1215 2 1 513 1 512 -1853 0 -1852 0 0 -1859z"/>
<path d="M7903 6460 l0 -1850 21 -1 c28 0 955 0 984 0 l22 1 0 1230 0 1230
159 0 158 0 0 -1225 c0 -674 3 -1229 7 -1232 4 -5 750 -8 986 -4 l35 1 0 1228
0 1227 158 0 158 0 2 -1229 2 -1229 480 1 c264 0 495 1 513 1 l32 1 0 1850 0
1850 -1859 0 -1858 0 0 -1850z"/>
<path d="M10638 4352 l-47 -3 0 -510 c0 -280 4 -510 7 -510 4 -1 235 -2 515
-3 l507 -1 0 512 0 513 -42 1 c-214 2 -903 3 -940 1z"/>
<path d="M2460 4332 c-168 -45 -299 -162 -361 -322 -30 -77 -37 -232 -14 -320
29 -111 92 -209 182 -281 37 -30 149 -77 208 -88 82 -15 199 -13 274 4 72 17
187 72 242 116 l38 30 -2 217 -2 217 -219 0 -220 0 1 -67 c1 -38 2 -81 2 -97
l1 -30 83 0 c155 0 137 9 137 -70 0 -60 -3 -70 -22 -83 -77 -50 -225 -59 -311
-21 -186 85 -233 360 -89 514 64 70 144 98 244 88 68 -7 154 -43 194 -80 l22
-20 43 51 c24 28 56 66 72 83 l27 32 -37 33 c-39 34 -119 75 -174 88 -19 4
-41 9 -49 11 -8 2 -58 6 -110 9 -71 3 -112 0 -160 -14z"/>
<path d="M9828 4345 c-2 -2 -19 -5 -38 -8 -238 -35 -425 -273 -415 -530 6
-141 51 -252 143 -346 102 -104 236 -154 405 -150 132 3 250 42 357 118 l52
37 0 190 c-1 104 -1 203 -1 219 l-1 30 -207 -1 c-115 -1 -213 -2 -218 -3 -9
-1 -13 -122 -6 -178 1 -9 22 -12 69 -12 37 0 85 0 108 0 l40 -1 -2 -67 c-1
-38 -2 -71 -3 -74 -1 -4 -25 -17 -53 -30 -77 -33 -214 -34 -278 -1 -123 64
-186 186 -168 329 29 246 285 354 495 209 l50 -34 66 78 c37 43 67 83 67 88 0
13 -82 70 -133 92 -64 28 -168 48 -252 48 -41 0 -75 -1 -77 -3z"/>
<path d="M72 4332 l-52 -3 2 -502 3 -502 380 0 380 0 1 90 c0 50 -1 95 -3 100
-2 7 -96 11 -273 10 l-270 0 0 102 0 103 58 1 c31 0 137 0 235 0 97 0 178 3
178 7 1 4 2 49 3 100 1 92 1 92 -24 93 -14 0 -121 1 -237 1 l-213 1 0 98 0 99
38 1 c20 0 141 0 268 0 l231 1 0 99 c1 69 -2 99 -10 100 -53 2 -654 3 -695 1z"/>
<path d="M989 4329 c-5 -3 -8 -212 -7 -505 l3 -499 105 0 105 0 5 315 5 314
170 -223 c94 -123 202 -264 240 -314 l71 -91 92 -1 c58 -1 92 3 93 9 1 6 2
233 3 504 l1 492 -22 1 c-13 0 -50 1 -83 1 -33 0 -73 -1 -88 -1 l-28 -1 1
-300 c0 -165 -3 -299 -7 -298 -7 3 -68 81 -329 426 l-131 172 -56 1 c-32 0
-74 1 -95 2 -22 1 -43 -1 -48 -4z"/>
<path d="M3280 4330 l-35 -5 0 -497 c0 -327 3 -498 10 -499 5 -1 56 -2 113 -3
l102 -2 0 503 c0 472 -1 503 -17 504 -75 4 -143 3 -173 -1z"/>
<path d="M3760 4332 l-45 -3 1 -493 c0 -271 3 -497 7 -502 3 -5 52 -9 109 -9
l103 0 1 308 c1 169 3 309 5 312 3 2 70 -82 149 -187 80 -104 150 -195 155
-202 6 -6 22 -27 35 -46 13 -19 27 -37 30 -40 6 -4 82 -105 102 -134 4 -6 50
-11 102 -11 l96 -1 0 505 0 506 -88 -2 c-48 -1 -97 -2 -109 -2 l-23 -1 0 -307
0 -307 -55 75 c-31 41 -66 87 -78 103 -12 15 -91 119 -175 229 -84 111 -154
203 -156 205 -5 5 -112 8 -166 4z"/>
<path d="M4888 4332 l-38 -3 0 -502 0 -502 373 1 c204 1 377 2 382 3 9 1 13
158 6 191 0 3 -117 5 -258 5 -142 -1 -264 1 -270 3 -9 3 -13 33 -13 103 l0 99
53 1 c28 0 135 0 237 0 l185 0 -1 95 c0 52 -3 96 -5 99 -3 2 -109 5 -237 5
l-232 1 0 100 0 99 43 0 c23 1 144 1 270 1 l227 1 0 99 0 99 -67 0 c-38 1
-192 2 -343 3 -151 1 -292 1 -312 -1z"/>
<path d="M5820 4332 c-6 -3 -10 -179 -10 -505 l0 -502 380 0 c248 0 380 3 381
10 4 34 4 177 -1 183 -3 4 -124 8 -270 7 l-265 0 -3 103 -3 102 53 1 c29 0
136 0 238 0 l185 0 -2 87 c0 48 -2 93 -2 100 -1 9 -55 12 -236 12 l-235 0 0
100 0 100 43 0 c23 1 144 1 270 1 l227 1 -1 99 c-1 85 -3 99 -18 100 -70 2
-723 3 -731 1z"/>
<path d="M6833 4332 l-63 -3 0 -502 0 -502 110 0 110 -1 1 51 c0 27 0 100 0
161 l0 112 86 -2 86 -1 107 -160 107 -159 127 -1 c69 -1 126 3 126 8 0 8 -169
261 -212 316 -24 32 -23 35 17 54 56 27 121 93 146 150 19 43 23 69 23 148 0
85 -3 101 -29 153 -50 100 -147 161 -274 172 -67 6 -381 10 -468 6z m490 -232
c20 -14 42 -37 48 -53 16 -38 6 -122 -17 -148 -40 -44 -71 -52 -219 -53 l-140
-1 -2 143 -2 144 148 -4 c138 -3 150 -5 184 -28z"/>
<path d="M7845 4330 l-30 -5 0 -500 0 -500 110 0 110 0 1 503 1 502 -21 1
c-89 4 -145 3 -171 -1z"/>
<path d="M8315 4332 l-30 -3 0 -497 c0 -408 2 -498 13 -502 8 -3 57 -6 110 -5
l97 1 2 308 c2 170 4 310 6 312 1 2 47 -56 102 -129 55 -73 105 -139 112 -147
7 -8 69 -89 138 -180 l124 -165 96 0 95 0 0 502 c0 440 -2 503 -15 504 -8 0
-31 1 -50 1 -19 0 -62 -1 -95 -1 l-60 -1 0 -306 0 -307 -91 119 c-49 66 -98
129 -107 141 -9 12 -73 96 -142 187 l-125 165 -75 3 c-41 2 -89 2 -105 0z"/>
</g>
</svg>
