<svg xmlns="http://www.w3.org/2000/svg" viewBox="0 0 1357 584"><defs><style>.cls-1{fill:#fb2601;}.cls-2{fill:#fff;}</style></defs><g id="Livello_2" data-name="Livello 2"><g id="Livello_1-2" data-name="Livello 1"><rect class="cls-1" x="1237.39" y="462.39" width="119.6" height="119.6"/><path class="cls-2" d="M2.58,582V464.85H90.77v22.93H28v23.76H83.24v22.93H28v24.6H91.6V582Z"/><path class="cls-2" d="M196.86,582l-56.73-74.47V582H114.7V464.85h23.76L193.35,537V464.85h25.43V582Z"/><path class="cls-2" d="M331.82,578.56Q319.36,584,303.29,584a66.65,66.65,0,0,1-25-4.52,57.57,57.57,0,0,1-19.41-12.55,56.58,56.58,0,0,1-12.63-19.08,63,63,0,0,1-4.52-24.09v-.34a59.91,59.91,0,0,1,36.81-55.81,62.23,62.23,0,0,1,24.6-4.77,86.77,86.77,0,0,1,14.31,1.09,68.41,68.41,0,0,1,12,3.1,55.51,55.51,0,0,1,10.37,5,76.59,76.59,0,0,1,9.37,6.86l-16.23,19.58a64.82,64.82,0,0,0-6.69-5,43.71,43.71,0,0,0-7-3.68,40.59,40.59,0,0,0-7.78-2.35,47.66,47.66,0,0,0-9.2-.83,30,30,0,0,0-13.14,2.93A35.66,35.66,0,0,0,271.25,509a38.31,38.31,0,0,0-2.6,14.17v.34a41.06,41.06,0,0,0,2.6,14.84,35,35,0,0,0,7.36,11.82,33.29,33.29,0,0,0,11.21,7.8,35.77,35.77,0,0,0,14.31,2.77q14.39,0,24.26-7.08V536.81H302.46V514.55h50.87v50.88A85.83,85.83,0,0,1,331.82,578.56Z"/><path class="cls-2" d="M379.27,582V464.85H405V582Z"/><path class="cls-2" d="M516.49,582l-56.73-74.47V582H434.32V464.85h23.76L513,537V464.85h25.44V582Z"/><path class="cls-2" d="M566.52,582V464.85h88.19v22.93H592v23.76h55.22v22.93H592v24.6h63.59V582Z"/><path class="cls-2" d="M678.64,582V464.85h88.19v22.93H704.08v23.76H759.3v22.93H704.08v24.6h63.59V582Z"/><path class="cls-2" d="M861.88,582l-25.1-37.48H816.53V582H790.76V464.85h53.55q20.93,0,32.55,10.21t11.63,28.45v.33q0,14.24-6.94,23.18a40.28,40.28,0,0,1-18.16,13.14L892,582Zm.51-77.14q0-8.37-5.36-12.55t-14.89-4.19H816.53v33.64h26.11q9.54,0,14.64-4.52a15.31,15.31,0,0,0,5.11-12.05Z"/><path class="cls-2" d="M912.92,582V464.85h25.77V582Z"/><path class="cls-2" d="M1050.15,582l-56.73-74.47V582H968V464.85h23.76L1046.63,537V464.85h25.44V582Z"/><path class="cls-2" d="M1185.11,578.56q-12.46,5.45-28.53,5.44a66.65,66.65,0,0,1-25-4.52,57.57,57.57,0,0,1-19.41-12.55,56.46,56.46,0,0,1-12.64-19.08,63,63,0,0,1-4.52-24.09v-.34a59.93,59.93,0,0,1,36.82-55.81,62.16,62.16,0,0,1,24.6-4.77,86.94,86.94,0,0,1,14.31,1.09,68.53,68.53,0,0,1,12,3.1,55.91,55.91,0,0,1,10.38,5,77.36,77.36,0,0,1,9.37,6.86l-16.23,19.58a66,66,0,0,0-6.7-5,43.62,43.62,0,0,0-6.94-3.68,40.81,40.81,0,0,0-7.78-2.35,47.69,47.69,0,0,0-9.21-.83,30.08,30.08,0,0,0-13.14,2.93,35.43,35.43,0,0,0-10.7,7.89,36.11,36.11,0,0,0-7.2,11.57,38.51,38.51,0,0,0-2.59,14.17v.34a41.28,41.28,0,0,0,2.59,14.84,35.19,35.19,0,0,0,7.36,11.82,33.39,33.39,0,0,0,11.21,7.8,35.84,35.84,0,0,0,14.31,2.77q14.4,0,24.27-7.08V536.81h-25.94V514.55h50.87v50.88A85.59,85.59,0,0,1,1185.11,578.56Z"/><polygon class="cls-2" points="432.37 0.11 432.37 433.94 0 433.94 0 314.16 287.76 314.16 287.76 276.91 0 276.91 0 157.13 287.76 157.13 287.76 119.89 0 119.89 0 0.11 432.37 0.11"/><polygon class="cls-2" points="461.88 433.94 461.88 0.11 894.25 0.11 894.25 119.89 606.49 119.89 606.49 157.13 894.25 157.13 894.25 276.91 606.49 276.91 606.49 314.16 894.25 314.16 894.25 433.94 461.88 433.94"/><polygon class="cls-2" points="923.17 0 1357 0 1357 432.37 1237.22 432.37 1237.22 144.61 1199.97 144.61 1199.97 432.37 1080.2 432.37 1080.2 144.61 1042.95 144.61 1042.95 432.37 923.17 432.37 923.17 0"/></g></g></svg>